<?xml version="1.0" encoding="utf-8"?>
<!-- Generator: Adobe Illustrator 19.2.0, SVG Export Plug-In . SVG Version: 6.00 Build 0)  -->
<svg version="1.1" id="Layer_4" xmlns="http://www.w3.org/2000/svg" xmlns:xlink="http://www.w3.org/1999/xlink" x="0px" y="0px"
	 width="401px" height="53px" viewBox="0 0 401 53" enable-background="new 0 0 401 53" xml:space="preserve" >
<g>
	<path fill="#BFD0EB" d="M107.1,17.9c10.3-9.8,50.6,0,50.6,0V1h-50.6C107.1,1,107.1,10.5,107.1,17.9z"/>
	<path fill="#803E08" d="M157.7,34.7c-10.3,9.8-50.6,0-50.6,0v16.9h50.6C157.7,51.6,157.7,42.1,157.7,34.7z"/>
	<path fill="#4CA1D2" d="M107.1,17.9c10.3-9.8,50.6,0,50.6,0V1h-50.6C107.1,1,107.1,10.5,107.1,17.9z"/>
	<path fill="#421400" d="M157.7,34.7c-10.3,9.8-50.6,0-50.6,0v16.9h50.6C157.7,51.6,157.7,42.1,157.7,34.7z"/>
	<path fill="#648326" d="M107.1,20.5c10.3-9.8,50.6,0,50.6,0v11.6c-10.3,9.8-50.6,0-50.6,0V20.5z"/>
</g>
<g>
	<path fill="#421400" d="M181.2,1.1h4.9c2.2,0,3.7,0.4,4.8,1c1.9,1.1,2.8,3,2.8,4.9c0,3-1.6,4.9-4.3,5.7v0.1
		c0.7,0.4,1.5,1.5,2.6,3.5l3.8,6.4h-3.4l-3.5-6c-1-1.8-1.8-2.8-2.5-3h-2.2v9h-2.9V1.1z M186,11.4c1.1,0,2-0.2,2.8-0.7
		c1.1-0.6,1.8-1.7,1.8-3.3c0-1.2-0.5-2.3-1.4-3c-0.7-0.5-1.6-0.9-3.1-0.9h-2v7.9H186z"/>
	<path fill="#421400" d="M198.4,18.6c-0.4-1-0.6-2.3-0.6-3.7V1.1h2.9v13.5c0,1.1,0.1,2.1,0.5,3c0.8,1.9,2.4,3,4.9,3c2.6,0,4.2-1,5-3
		c0.3-0.8,0.5-1.8,0.5-3.1V1.1h2.9v13.8c0,1.4-0.2,2.7-0.7,3.8c-1.1,2.9-3.8,4.4-7.7,4.4C202.2,23.1,199.6,21.5,198.4,18.6z"/>
	<path fill="#421400" d="M219.1,1.1h4.9c2.2,0,3.7,0.4,4.8,1c1.9,1.1,2.8,3,2.8,4.9c0,3-1.6,4.9-4.3,5.7v0.1
		c0.7,0.4,1.5,1.5,2.6,3.5l3.8,6.4h-3.4l-3.5-6c-1-1.8-1.8-2.8-2.5-3h-2.2v9h-2.9V1.1z M224,11.4c1.1,0,2-0.2,2.8-0.7
		c1.1-0.6,1.8-1.7,1.8-3.3c0-1.2-0.5-2.3-1.4-3c-0.7-0.5-1.6-0.9-3.2-0.9h-2v7.9H224z"/>
	<path fill="#421400" d="M243.5,1.1h2.1l8.4,21.7h-3.1l-2.1-5.7h-8.4l-2.1,5.7h-3.1L243.5,1.1z M247.8,14.7l-2-5.6
		c-0.6-1.8-1-2.8-1.2-3.6h-0.1c-0.2,0.8-0.6,1.8-1.2,3.6l-2,5.6H247.8z"/>
	<path fill="#421400" d="M256.3,1.1h2.9v19.2h7.9v2.4h-10.8V1.1z"/>
	<path fill="#421400" d="M275.3,12c0-6.6,4.5-11.1,10.7-11.1c6.2,0,10.6,4.6,10.6,11.1c0,6.7-4.6,11.1-10.6,11.1
		C279.8,23.1,275.3,18.7,275.3,12z M293.5,12c0-5-2.8-8.6-7.5-8.6c-4.6,0-7.6,3.4-7.6,8.6c0,5.2,3,8.6,7.6,8.6
		C290.5,20.6,293.5,17.2,293.5,12z"/>
	<path fill="#421400" d="M300.2,1.1h2.8l9.8,12.7c1.3,1.6,2.2,3,2.9,4h0.1c-0.1-1.2-0.1-2.2-0.1-3.8v-13h2.9v21.6h-2.6L305.9,9.5
		c-1.2-1.6-2.1-2.8-2.9-3.9H303c0.1,1,0.1,2.1,0.1,3.6v13.5h-2.9V1.1z"/>
	<path fill="#421400" d="M327.3,3.5h-6.2V1.1h16l-0.8,2.4h-6v19.2h-2.9V3.5z"/>
	<path fill="#421400" d="M342.9,1.1h2.1l8.4,21.7h-3.1l-2.1-5.7h-8.4l-2.1,5.7h-3L342.9,1.1z M347.2,14.7l-2-5.6
		c-0.6-1.8-1-2.8-1.2-3.6h-0.1c-0.2,0.8-0.6,1.8-1.2,3.6l-2,5.6H347.2z"/>
	<path fill="#421400" d="M355.8,1.1h4.9c2.2,0,3.7,0.4,4.8,1c1.9,1.1,2.8,3,2.8,4.9c0,3-1.6,4.9-4.3,5.7v0.1
		c0.7,0.4,1.5,1.5,2.6,3.5l3.8,6.4h-3.4l-3.5-6c-1-1.8-1.8-2.8-2.5-3h-2.2v9h-2.9V1.1z M360.6,11.4c1.1,0,2-0.2,2.8-0.7
		c1.1-0.6,1.8-1.7,1.8-3.3c0-1.2-0.5-2.3-1.4-3c-0.7-0.5-1.6-0.9-3.2-0.9h-2v7.9H360.6z"/>
	<path fill="#421400" d="M372.9,1.1h2.9v21.6h-2.9V1.1z"/>
	<path fill="#421400" d="M379.5,12c0-6.6,4.5-11.1,10.7-11.1c6.2,0,10.6,4.6,10.6,11.1c0,6.7-4.6,11.1-10.6,11.1
		C384,23.1,379.5,18.7,379.5,12z M397.7,12c0-5-2.8-8.6-7.5-8.6c-4.6,0-7.6,3.4-7.6,8.6c0,5.2,3,8.6,7.6,8.6
		C394.7,20.6,397.7,17.2,397.7,12z"/>
	<path fill="#421400" d="M181.2,30.1h2.9v21.6h-2.9V30.1z"/>
	<path fill="#421400" d="M188.8,30.1h2.8l9.8,12.7c1.3,1.6,2.2,3,2.9,4h0.1c-0.1-1.2-0.1-2.2-0.1-3.8v-13h2.9v21.6h-2.6l-10.1-13.2
		c-1.2-1.6-2.1-2.8-2.9-3.9h-0.1c0.1,1,0.1,2.1,0.1,3.6v13.5h-2.9V30.1z"/>
	<path fill="#421400" d="M211.7,48.1c1.1,0.8,2.8,1.5,4.8,1.5c2.1,0,4.1-0.9,4.1-3.2c0-4.9-9.4-4.3-9.4-10.8c0-3.1,2.4-5.7,6.6-5.7
		c2,0,3.8,0.5,4.9,1v2.7c-1.5-0.8-3.1-1.2-4.8-1.2c-1.8,0-3.6,0.8-3.6,2.9c0,4.6,9.5,4.1,9.5,10.9c0,3.7-3,5.9-7.2,5.9
		c-2.5,0-4.6-0.8-6-1.7L211.7,48.1z"/>
	<path fill="#421400" d="M231.3,32.5H225v-2.4h16l-0.8,2.4h-6v19.2h-2.9V32.5z"/>
	<path fill="#421400" d="M243.2,30.1h2.9v21.6h-2.9V30.1z"/>
	<path fill="#421400" d="M254.8,32.5h-6.2v-2.4h16l-0.8,2.4h-6v19.2h-2.9V32.5z"/>
	<path fill="#421400" d="M267.3,47.6c-0.4-1-0.6-2.3-0.6-3.7V30.1h2.9v13.5c0,1.1,0.1,2.1,0.5,3c0.8,1.9,2.4,3,4.9,3
		c2.6,0,4.2-1,5-3c0.3-0.8,0.5-1.8,0.5-3.1V30.1h2.9v13.8c0,1.4-0.2,2.7-0.7,3.8c-1.1,2.9-3.8,4.4-7.7,4.4
		C271,52.1,268.4,50.5,267.3,47.6z"/>
	<path fill="#421400" d="M291.9,32.5h-6.2v-2.4h16l-0.8,2.4h-6v19.2h-2.9V32.5z"/>
	<path fill="#421400" d="M303.9,30.1h10.9l-0.9,2.4h-7.2v7h7.1v2.4h-7.1v7.4h8.1v2.4h-11.1V30.1z"/>
</g>
<g>
	<path fill="#4CA1D2" d="M0.2,1.1h16.2c4.4,0,7.7,0.6,10.4,1.7c6.2,2.5,8.6,7.6,8.6,13.2c0,6.5-4.3,11.1-9.7,12.8V29
		c1.5,0.9,3.8,3.6,6.4,8.4l8,14.3H26.9l-6.1-11.5c-2.6-4.9-4.3-6.7-5.4-7h-3.4v18.5H0.2V1.1z M15.6,23.7c2.1,0,3.4-0.4,4.6-1
		c1.8-1.1,3.1-3,3.1-5.6c0-2.5-1.3-4.7-3.5-5.8c-1-0.5-2.1-0.8-4.1-0.8h-3.8v13.2H15.6z"/>
	<path fill="#4CA1D2" d="M33,26.5C33,11.2,43.6,0.6,59,0.6c15.4,0,26.1,10.6,26.1,25.9c0,15.3-10.7,25.9-26.1,25.9
		C43.6,52.4,33,41.8,33,26.5z M72.6,26.5c0-10.7-5.6-16.2-13.6-16.2c-8,0-13.6,5.4-13.6,16.2c0,10.7,5.6,16.2,13.6,16.2
		C67,42.7,72.6,37.2,72.6,26.5z"/>
	<path fill="#4CA1D2" d="M83.8,1.1h11.7v50.5H83.8V1.1z"/>
</g>
</svg>
